<?xml version="1.0" encoding="UTF-8"?>
<svg version="1.1" xmlns="http://www.w3.org/2000/svg" width="282" height="282">
<path d="M0 0 C1.37046884 -0.00134917 2.74093721 -0.00329181 4.11140442 -0.00579834 C6.97169591 -0.00873476 9.83186185 -0.00449796 12.69213867 0.00488281 C16.35396082 0.01630911 20.01549077 0.00968864 23.67730236 -0.00226212 C26.50232644 -0.00949324 29.32728133 -0.00718761 32.15230751 -0.00200653 C34.15754513 -0.00002953 36.16278546 -0.00608789 38.16801453 -0.01226807 C39.38640518 -0.00596375 40.60479584 0.00034058 41.86010742 0.00683594 C42.93153488 0.00842712 44.00296234 0.01001831 45.1068573 0.01165771 C49.22341281 0.38669097 51.48983858 1.99582988 54.89453125 4.265625 C56.8793069 4.84176126 58.88221718 5.35710541 60.89453125 5.828125 C69.49003687 7.86113062 69.49003687 7.86113062 71.89453125 10.265625 C73.44333984 10.44544922 73.44333984 10.44544922 75.0234375 10.62890625 C79.66287836 11.39200298 82.82913735 13.08880337 86.83203125 15.453125 C87.88209351 16.05942749 87.88209351 16.05942749 88.95336914 16.67797852 C101.88807216 24.25270682 101.88807216 24.25270682 103.89453125 28.265625 C104.88453125 28.595625 105.87453125 28.925625 106.89453125 29.265625 C107.22453125 30.255625 107.55453125 31.245625 107.89453125 32.265625 C108.49265625 32.36875 109.09078125 32.471875 109.70703125 32.578125 C113.08425034 33.63953671 113.97414561 36.35761246 115.89453125 39.265625 C118.99565035 42.28850486 122.29388292 44.86519278 125.89453125 47.265625 C126.095625 48.12414063 126.095625 48.12414063 126.30078125 49 C127.18254091 52.36460922 129.32761701 54.78534691 131.39453125 57.515625 C146.79719119 78.57804771 157.86228817 104.06313296 158.1328125 130.49609375 C158.14256104 131.28014587 158.15230957 132.064198 158.16235352 132.87200928 C158.47672896 164.67187125 158.47672896 164.67187125 153.89453125 179.265625 C153.52748011 180.56217055 153.16159146 181.85904577 152.796875 183.15625 C146.1087189 205.19315757 133.34797483 224.22418366 117.875 241.0390625 C115.27107716 243.96654971 113.06684055 247.00716105 110.89453125 250.265625 C109.90453125 250.4821875 109.90453125 250.4821875 108.89453125 250.703125 C108.23453125 250.88875 107.57453125 251.074375 106.89453125 251.265625 C106.59208496 251.88477783 106.28963867 252.50393066 105.97802734 253.1418457 C104.76580147 255.51795045 103.76066666 256.35302176 101.55859375 257.80859375 C100.90632812 258.24236328 100.2540625 258.67613281 99.58203125 259.12304688 C98.90140625 259.56197266 98.22078125 260.00089844 97.51953125 260.453125 C96.84664062 260.90365234 96.17375 261.35417969 95.48046875 261.81835938 C92.24419743 263.94295876 89.66698429 265.34948611 85.89453125 266.265625 C85.21390625 266.94625 85.21390625 266.94625 84.51953125 267.640625 C80.40834076 271.75181549 75.5046434 272.70461379 69.89453125 273.265625 C69.89453125 273.925625 69.89453125 274.585625 69.89453125 275.265625 C67.90885417 275.4609375 65.92317708 275.65625 63.9375 275.8515625 C61.59464983 276.19227891 61.59464983 276.19227891 58.89453125 278.265625 C51.38136333 283.27440361 42.63991667 282.57260087 33.9375 282.56640625 C32.5852292 282.57030283 31.2329596 282.57463945 29.88069153 282.57939148 C27.05575584 282.58681958 24.23094519 282.58658793 21.40600586 282.58129883 C17.81542531 282.57551689 14.22536275 282.59242042 10.63486767 282.6156435 C7.84386791 282.63049698 5.05298947 282.63123679 2.26195717 282.62813377 C0.30410609 282.62888548 -1.65372639 282.64266501 -3.61152649 282.65681458 C-11.23709835 282.61770973 -17.87177941 281.71346215 -25.10546875 279.265625 C-25.10546875 278.605625 -25.10546875 277.945625 -25.10546875 277.265625 C-26.36359375 276.95625 -27.62171875 276.646875 -28.91796875 276.328125 C-32.07151216 275.55266351 -35.0964033 274.80379324 -37.98046875 273.265625 C-40.04722803 272.16677314 -40.04722803 272.16677314 -42.265625 271.953125 C-46.09128761 271.02696734 -49.28054116 269.20465484 -52.66796875 267.265625 C-53.36672119 266.86843262 -54.06547363 266.47124023 -54.78540039 266.06201172 C-72.20940207 255.95382505 -72.20940207 255.95382505 -74.10546875 250.265625 C-75.00265625 250.1109375 -75.00265625 250.1109375 -75.91796875 249.953125 C-79.29518784 248.89171329 -80.18508311 246.17363754 -82.10546875 243.265625 C-84.85291907 240.58608918 -87.65919248 237.98876314 -91.10546875 236.265625 C-91.22019531 235.70101562 -91.33492187 235.13640625 -91.453125 234.5546875 C-92.39185181 231.26071199 -94.3640457 229.27164908 -96.54296875 226.640625 C-112.91314221 206.04512491 -124.07283271 178.50651333 -124.34375 152.03515625 C-124.35349854 151.25110413 -124.36324707 150.467052 -124.37329102 149.65924072 C-124.68766646 117.85937875 -124.68766646 117.85937875 -120.10546875 103.265625 C-119.73841761 101.96907945 -119.37252896 100.67220423 -119.0078125 99.375 C-112.31672804 77.32844373 -99.57579144 57.94387978 -83.78588867 41.37475586 C-81.35709374 38.79424299 -79.65210612 36.43117251 -78.10546875 33.265625 C-76.43880208 32.59895833 -74.77213542 31.93229167 -73.10546875 31.265625 C-72.86054687 30.68296875 -72.615625 30.1003125 -72.36328125 29.5 C-70.50266657 26.1948087 -67.59257615 24.53082593 -64.48046875 22.515625 C-63.82328857 22.08386963 -63.1661084 21.65211426 -62.48901367 21.20727539 C-45.19004741 10.09074351 -45.19004741 10.09074351 -36.10546875 8.265625 C-35.11546875 7.935625 -34.12546875 7.605625 -33.10546875 7.265625 C-31.04585585 6.7334894 -28.9829996 6.21383156 -26.91796875 5.703125 C-25.83128906 5.43371094 -24.74460937 5.16429687 -23.625 4.88671875 C-22.79355469 4.68175781 -21.96210937 4.47679687 -21.10546875 4.265625 C-21.10546875 3.605625 -21.10546875 2.945625 -21.10546875 2.265625 C-14.18834397 -0.33224713 -7.3129973 -0.02264356 0 0 Z M-13.10546875 1.265625 C-13.10546875 1.595625 -13.10546875 1.925625 -13.10546875 2.265625 C-11.45546875 2.265625 -9.80546875 2.265625 -8.10546875 2.265625 C-8.10546875 1.935625 -8.10546875 1.605625 -8.10546875 1.265625 C-9.75546875 1.265625 -11.40546875 1.265625 -13.10546875 1.265625 Z M42.89453125 1.265625 C46.89453125 2.265625 46.89453125 2.265625 46.89453125 2.265625 Z M-17.10546875 2.265625 C-13.10546875 3.265625 -13.10546875 3.265625 -13.10546875 3.265625 Z M-13.10546875 280.265625 C-13.10546875 280.595625 -13.10546875 280.925625 -13.10546875 281.265625 C-11.45546875 281.265625 -9.80546875 281.265625 -8.10546875 281.265625 C-8.10546875 280.935625 -8.10546875 280.605625 -8.10546875 280.265625 C-9.75546875 280.265625 -11.40546875 280.265625 -13.10546875 280.265625 Z M41.89453125 280.265625 C41.89453125 280.595625 41.89453125 280.925625 41.89453125 281.265625 C43.54453125 281.265625 45.19453125 281.265625 46.89453125 281.265625 C46.89453125 280.935625 46.89453125 280.605625 46.89453125 280.265625 C45.24453125 280.265625 43.59453125 280.265625 41.89453125 280.265625 Z " fill="#FCFDFE" transform="translate(124.10546875,-0.265625)"/>
<path d="M0 0 C1.37046884 -0.00134917 2.74093721 -0.00329181 4.11140442 -0.00579834 C6.97169591 -0.00873476 9.83186185 -0.00449796 12.69213867 0.00488281 C16.35396082 0.01630911 20.01549077 0.00968864 23.67730236 -0.00226212 C26.50232644 -0.00949324 29.32728133 -0.00718761 32.15230751 -0.00200653 C34.15754513 -0.00002953 36.16278546 -0.00608789 38.16801453 -0.01226807 C39.38640518 -0.00596375 40.60479584 0.00034058 41.86010742 0.00683594 C42.93153488 0.00842712 44.00296234 0.01001831 45.1068573 0.01165771 C49.22341281 0.38669097 51.48983858 1.99582988 54.89453125 4.265625 C56.8793069 4.84176126 58.88221718 5.35710541 60.89453125 5.828125 C69.49003687 7.86113062 69.49003687 7.86113062 71.89453125 10.265625 C73.44333984 10.44544922 73.44333984 10.44544922 75.0234375 10.62890625 C79.66287836 11.39200298 82.82913735 13.08880337 86.83203125 15.453125 C87.88209351 16.05942749 87.88209351 16.05942749 88.95336914 16.67797852 C101.88807216 24.25270682 101.88807216 24.25270682 103.89453125 28.265625 C104.88453125 28.595625 105.87453125 28.925625 106.89453125 29.265625 C107.22453125 30.255625 107.55453125 31.245625 107.89453125 32.265625 C108.49265625 32.36875 109.09078125 32.471875 109.70703125 32.578125 C113.08425034 33.63953671 113.97414561 36.35761246 115.89453125 39.265625 C118.99565035 42.28850486 122.29388292 44.86519278 125.89453125 47.265625 C126.095625 48.12414063 126.095625 48.12414063 126.30078125 49 C127.18254091 52.36460922 129.32761701 54.78534691 131.39453125 57.515625 C146.79719119 78.57804771 157.86228817 104.06313296 158.1328125 130.49609375 C158.14256104 131.28014587 158.15230957 132.064198 158.16235352 132.87200928 C158.47672896 164.67187125 158.47672896 164.67187125 153.89453125 179.265625 C153.52748011 180.56217055 153.16159146 181.85904577 152.796875 183.15625 C146.1087189 205.19315757 133.34797483 224.22418366 117.875 241.0390625 C115.27107716 243.96654971 113.06684055 247.00716105 110.89453125 250.265625 C109.90453125 250.4821875 109.90453125 250.4821875 108.89453125 250.703125 C108.23453125 250.88875 107.57453125 251.074375 106.89453125 251.265625 C106.59208496 251.88477783 106.28963867 252.50393066 105.97802734 253.1418457 C104.76580147 255.51795045 103.76066666 256.35302176 101.55859375 257.80859375 C100.90632812 258.24236328 100.2540625 258.67613281 99.58203125 259.12304688 C98.90140625 259.56197266 98.22078125 260.00089844 97.51953125 260.453125 C96.84664062 260.90365234 96.17375 261.35417969 95.48046875 261.81835938 C92.24419743 263.94295876 89.66698429 265.34948611 85.89453125 266.265625 C85.21390625 266.94625 85.21390625 266.94625 84.51953125 267.640625 C80.40834076 271.75181549 75.5046434 272.70461379 69.89453125 273.265625 C69.89453125 273.925625 69.89453125 274.585625 69.89453125 275.265625 C67.90885417 275.4609375 65.92317708 275.65625 63.9375 275.8515625 C61.59464983 276.19227891 61.59464983 276.19227891 58.89453125 278.265625 C51.38136333 283.27440361 42.63991667 282.57260087 33.9375 282.56640625 C32.5852292 282.57030283 31.2329596 282.57463945 29.88069153 282.57939148 C27.05575584 282.58681958 24.23094519 282.58658793 21.40600586 282.58129883 C17.81542531 282.57551689 14.22536275 282.59242042 10.63486767 282.6156435 C7.84386791 282.63049698 5.05298947 282.63123679 2.26195717 282.62813377 C0.30410609 282.62888548 -1.65372639 282.64266501 -3.61152649 282.65681458 C-11.23709835 282.61770973 -17.87177941 281.71346215 -25.10546875 279.265625 C-25.10546875 278.605625 -25.10546875 277.945625 -25.10546875 277.265625 C-26.36359375 276.95625 -27.62171875 276.646875 -28.91796875 276.328125 C-32.07151216 275.55266351 -35.0964033 274.80379324 -37.98046875 273.265625 C-40.04722803 272.16677314 -40.04722803 272.16677314 -42.265625 271.953125 C-46.09128761 271.02696734 -49.28054116 269.20465484 -52.66796875 267.265625 C-53.36672119 266.86843262 -54.06547363 266.47124023 -54.78540039 266.06201172 C-72.20940207 255.95382505 -72.20940207 255.95382505 -74.10546875 250.265625 C-75.00265625 250.1109375 -75.00265625 250.1109375 -75.91796875 249.953125 C-79.29518784 248.89171329 -80.18508311 246.17363754 -82.10546875 243.265625 C-84.85291907 240.58608918 -87.65919248 237.98876314 -91.10546875 236.265625 C-91.22019531 235.70101562 -91.33492187 235.13640625 -91.453125 234.5546875 C-92.39185181 231.26071199 -94.3640457 229.27164908 -96.54296875 226.640625 C-112.91314221 206.04512491 -124.07283271 178.50651333 -124.34375 152.03515625 C-124.35349854 151.25110413 -124.36324707 150.467052 -124.37329102 149.65924072 C-124.68766646 117.85937875 -124.68766646 117.85937875 -120.10546875 103.265625 C-119.73841761 101.96907945 -119.37252896 100.67220423 -119.0078125 99.375 C-112.31672804 77.32844373 -99.57579144 57.94387978 -83.78588867 41.37475586 C-81.35709374 38.79424299 -79.65210612 36.43117251 -78.10546875 33.265625 C-76.43880208 32.59895833 -74.77213542 31.93229167 -73.10546875 31.265625 C-72.86054687 30.68296875 -72.615625 30.1003125 -72.36328125 29.5 C-70.50266657 26.1948087 -67.59257615 24.53082593 -64.48046875 22.515625 C-63.82328857 22.08386963 -63.1661084 21.65211426 -62.48901367 21.20727539 C-45.19004741 10.09074351 -45.19004741 10.09074351 -36.10546875 8.265625 C-35.11546875 7.935625 -34.12546875 7.605625 -33.10546875 7.265625 C-31.04585585 6.7334894 -28.9829996 6.21383156 -26.91796875 5.703125 C-25.83128906 5.43371094 -24.74460937 5.16429687 -23.625 4.88671875 C-22.79355469 4.68175781 -21.96210937 4.47679687 -21.10546875 4.265625 C-21.10546875 3.605625 -21.10546875 2.945625 -21.10546875 2.265625 C-14.18834397 -0.33224713 -7.3129973 -0.02264356 0 0 Z M-13.10546875 1.265625 C-13.10546875 1.595625 -13.10546875 1.925625 -13.10546875 2.265625 C-11.45546875 2.265625 -9.80546875 2.265625 -8.10546875 2.265625 C-8.10546875 1.935625 -8.10546875 1.605625 -8.10546875 1.265625 C-9.75546875 1.265625 -11.40546875 1.265625 -13.10546875 1.265625 Z M42.89453125 1.265625 C46.89453125 2.265625 46.89453125 2.265625 46.89453125 2.265625 Z M-17.10546875 2.265625 C-13.10546875 3.265625 -13.10546875 3.265625 -13.10546875 3.265625 Z M-73.10546875 48.265625 C-73.83507812 48.91015625 -74.5646875 49.5546875 -75.31640625 50.21875 C-96.33407036 69.94961835 -110.525047 100.9714745 -112.31396484 129.60253906 C-112.40831964 133.07619333 -112.43397762 136.5407439 -112.41796875 140.015625 C-112.41450439 141.24337646 -112.41104004 142.47112793 -112.4074707 143.73608398 C-112.29746404 152.94078524 -111.41839489 161.35657618 -109.10546875 170.265625 C-108.88890625 171.214375 -108.67234375 172.163125 -108.44921875 173.140625 C-100.74384235 204.69597598 -80.08589483 233.19202651 -52.66796875 250.515625 C-31.29750348 263.09558526 -9.33687838 270.69660168 15.64453125 270.578125 C16.8766333 270.57321045 18.10873535 270.5682959 19.37817383 270.56323242 C28.57594156 270.44513374 36.97482288 269.63011666 45.89453125 267.265625 C46.54292969 267.1099707 47.19132813 266.95431641 47.859375 266.79394531 C79.41264097 259.20844327 108.14039457 239.36594104 125.50415039 211.77416992 C132.67385408 199.93210956 138.30201573 187.66654335 141.89453125 174.265625 C142.18199219 173.21117187 142.46945312 172.15671875 142.765625 171.0703125 C151.20274753 138.85584466 145.19753449 104.92672652 128.89453125 76.265625 C123.4877271 67.15066359 116.92122787 59.15338429 109.89453125 51.265625 C109.30027344 50.59789062 108.70601562 49.93015625 108.09375 49.2421875 C86.89786519 26.83661199 53.23925269 12.89886541 22.6328125 11.96484375 C20.49097009 11.94540241 18.34893232 11.94186876 16.20703125 11.953125 C15.07072266 11.95876465 13.93441406 11.9644043 12.76367188 11.97021484 C-20.21824912 12.44258779 -48.78958436 26.58021887 -73.10546875 48.265625 Z M-13.10546875 280.265625 C-13.10546875 280.595625 -13.10546875 280.925625 -13.10546875 281.265625 C-11.45546875 281.265625 -9.80546875 281.265625 -8.10546875 281.265625 C-8.10546875 280.935625 -8.10546875 280.605625 -8.10546875 280.265625 C-9.75546875 280.265625 -11.40546875 280.265625 -13.10546875 280.265625 Z M41.89453125 280.265625 C41.89453125 280.595625 41.89453125 280.925625 41.89453125 281.265625 C43.54453125 281.265625 45.19453125 281.265625 46.89453125 281.265625 C46.89453125 280.935625 46.89453125 280.605625 46.89453125 280.265625 C45.24453125 280.265625 43.59453125 280.265625 41.89453125 280.265625 Z " fill="#0B6BAA" transform="translate(124.10546875,-0.265625)"/>
<path d="M0 0 C2.579446 -0.02720624 5.15495997 -0.10238771 7.73339844 -0.17749023 C19.89411139 -0.36410454 19.89411139 -0.36410454 23.90722656 2.16870117 C25.74121094 4.13305664 25.74121094 4.13305664 27.05664062 6.12158203 C27.47333008 6.58814209 27.89001953 7.05470215 28.31933594 7.53540039 C31.28663296 7.29879937 32.18540076 6.66933557 34.31933594 4.53540039 C39.31507558 4.53540039 42.334024 6.05566424 46.63183594 8.53540039 C54.51531747 12.73322877 62.58811073 12.51599767 71.31933594 12.53540039 C71.58488281 13.23407227 71.85042969 13.93274414 72.12402344 14.65258789 C72.65382812 16.01770508 72.65382812 16.01770508 73.19433594 17.41040039 C73.71640625 18.7677832 73.71640625 18.7677832 74.24902344 20.15258789 C75.20464488 22.65757046 75.20464488 22.65757046 77.31933594 24.53540039 C78.7116761 30.38322907 79.20637886 36.10770397 77.13183594 41.78540039 C75.10100705 44.86665801 73.40638319 46.51166941 70.31933594 48.53540039 C66.98730469 48.92602539 66.98730469 48.92602539 63.50683594 48.78540039 C62.34539062 48.74930664 61.18394531 48.71321289 59.98730469 48.67602539 C59.106875 48.62961914 58.22644531 48.58321289 57.31933594 48.53540039 C57.22136719 47.9437207 57.12339844 47.35204102 57.02246094 46.74243164 C56.06858085 41.70166875 55.11962643 38.22391763 51.31933594 34.53540039 C46.81841129 31.83868435 42.42831627 31.67213182 37.31933594 32.53540039 C33.91157767 34.11779637 32.84977853 35.47778225 30.31933594 38.53540039 C29.32933594 43.48540039 29.32933594 43.48540039 28.31933594 48.53540039 C1.58933594 48.53540039 -25.14066406 48.53540039 -52.68066406 48.53540039 C-53.34066406 45.56540039 -54.00066406 42.59540039 -54.68066406 39.53540039 C-56.92991058 35.03690736 -59.09393024 33.25868938 -63.68066406 31.53540039 C-67.73954308 30.69069541 -71.07707132 30.61949638 -74.73925781 32.71118164 C-78.19087678 35.48826384 -80.7310674 38.1039493 -81.68066406 42.53540039 C-81.81647759 45.22652021 -81.77215485 47.8364222 -81.68066406 50.53540039 C-95.31392147 49.94086736 -95.31392147 49.94086736 -101.68066406 46.53540039 C-101.02066406 42.57540039 -100.36066406 38.61540039 -99.68066406 34.53540039 C-98.19566406 34.04040039 -98.19566406 34.04040039 -96.68066406 33.53540039 C-96.76316406 32.62790039 -96.84566406 31.72040039 -96.93066406 30.78540039 C-96.68066406 27.53540039 -96.68066406 27.53540039 -94.98242188 25.40478516 C-92.38399412 23.29445833 -90.88477886 22.84948525 -87.60253906 22.37524414 C-86.61431152 22.2235376 -85.62608398 22.07183105 -84.60791016 21.91552734 C-83.55941895 21.76946045 -82.51092773 21.62339355 -81.43066406 21.47290039 C-79.25094087 21.13198269 -77.0712534 20.79083651 -74.89160156 20.44946289 C-71.27559957 19.90722691 -67.65881639 19.39911785 -64.03222656 18.93383789 C-55.14223719 17.68781596 -49.14202301 14.82319575 -41.92285156 9.75805664 C-28.95847511 0.8704299 -15.23635064 0.10657854 0 0 Z " fill="#FBFCFD" transform="translate(150.6806640625,88.464599609375)"/>
<path d="M0 0 C3.85544798 1.99657127 5.59805092 3.39707638 8 7 C9.11089174 14.15620956 7.38527483 19.74328671 4 26 C4.66386719 26.18175781 5.32773438 26.36351563 6.01171875 26.55078125 C6.89472656 26.80214844 7.77773437 27.05351563 8.6875 27.3125 C9.55761719 27.55613281 10.42773438 27.79976562 11.32421875 28.05078125 C14 29 14 29 16.15625 30.5625 C20.54883696 32.78292857 24.95492776 32.57331932 29.8125 32.6875 C30.79154297 32.72166016 31.77058594 32.75582031 32.77929688 32.79101562 C35.18608345 32.87319858 37.59251945 32.94244433 40 33 C41.08546976 36.19785698 42.09140632 39.35343776 42.9375 42.625 C43.94293655 45.81873963 45.01157039 47.40639616 47 50 C48.94340936 56.00690165 48.63812488 62.83746568 46.875 68.8125 C44.77752572 72.37820627 42.5859231 74.94958507 39 77 C36.13346819 77.59212279 33.35587465 77.56626877 30.4375 77.5 C24.25406448 77.29209924 24.25406448 77.29209924 19.0859375 80.44921875 C18.39757812 81.29097656 17.70921875 82.13273437 17 83 C13.41175883 85.59838153 9.273719 85.68346566 5 85 C2.09254858 83.40913035 -0.20157838 82.08775224 -2.17643738 79.39724731 C-5.08760925 77.16665373 -8.33557749 77.50118433 -11.86450195 77.45654297 C-12.66484863 77.43510727 -13.46519531 77.41367157 -14.28979492 77.3915863 C-16.93921106 77.32564132 -19.58835693 77.28239326 -22.23828125 77.2421875 C-24.08050551 77.20756244 -25.92272451 77.17265662 -27.76493835 77.13748169 C-31.62925427 77.06799714 -35.49353337 77.01138738 -39.3581543 76.96191406 C-44.30558749 76.89621501 -49.25079865 76.78431979 -54.19707966 76.66079521 C-58.00330724 76.57334634 -61.80951947 76.51788313 -65.61644554 76.47122574 C-67.43986289 76.44365163 -69.26314359 76.40447148 -71.08605385 76.35338974 C-73.64062674 76.28516127 -76.19194245 76.26192217 -78.74731445 76.24951172 C-79.49714096 76.21970718 -80.24696747 76.18990265 -81.01951599 76.15919495 C-84.14106373 76.18383698 -86.38462953 76.44268383 -88.73793602 78.57397842 C-90.33873809 80.44683032 -90.33873809 80.44683032 -91.68466473 82.3974781 C-93.60257711 84.73414211 -95.56956783 84.95269976 -98.48828125 85.2734375 C-107.05520651 85.58151503 -107.05520651 85.58151503 -110.625 82.75 C-113.76972281 79.108742 -113.76972281 79.108742 -114 76 C-114.66 76 -115.32 76 -116 76 C-117.32476319 69.01488498 -117.32476319 69.01488498 -116 64.875 C-113.03783768 60.61689166 -110.04537761 56.77091246 -104.82421875 55.44921875 C-99.63437075 55.13549737 -95.87598495 56.52868398 -91.6640625 59.515625 C-89.13515517 61.77145783 -88.02957737 63.78257072 -87 67 C-87 69.31 -87 71.62 -87 74 C-60.27 74 -33.54 74 -6 74 C-6 71.36 -6 68.72 -6 66 C-4.5390625 63.50390625 -4.5390625 63.50390625 -2.625 61.5625 C-1.99851563 60.90378906 -1.37203125 60.24507812 -0.7265625 59.56640625 C2.74368273 56.4180616 5.94777183 56.66412816 10.4609375 56.72265625 C15.58009175 57.28182541 18.17794594 60.02651492 21.375 63.8125 C23.2504825 67.49133106 23.32596702 69.9254122 23 74 C25.0632984 73.93958131 27.12577414 73.85068362 29.1875 73.75 C30.33605469 73.70359375 31.48460937 73.6571875 32.66796875 73.609375 C36.52511897 72.90396417 38.21369199 71.70554546 41 69 C44.11587263 63.65850406 43.43180118 57.91226238 42.125 52.125 C41.23174891 48.94788422 41.23174891 48.94788422 39 47 C38.3671875 44.8359375 38.3671875 44.8359375 37.875 42.375 C37.70742187 41.55773437 37.53984375 40.74046875 37.3671875 39.8984375 C37.24601563 39.27195313 37.12484375 38.64546875 37 38 C35.25976562 38.10441406 35.25976562 38.10441406 33.484375 38.2109375 C24.20763492 38.59402716 17.71750606 38.22165867 9.4921875 33.4140625 C6.14365479 31.51411134 3.83463081 30.91841211 0 31 C-1.68798827 32.43750191 -1.68798827 32.43750191 -3 34 C-6.3390815 33.62035484 -7.65879535 32.53959003 -9.71801758 29.97851562 C-12.08605921 27.50072114 -13.56256398 26.56298259 -16.99487305 26.28710938 C-18.50055503 26.27464109 -20.00676749 26.29521755 -21.51171875 26.34375 C-22.72502617 26.34936951 -22.72502617 26.34936951 -23.96284485 26.35510254 C-25.66997835 26.36850093 -27.37705265 26.39624686 -29.08374023 26.4375 C-31.662545 26.49940099 -34.23888731 26.51941417 -36.81835938 26.53125 C-48.61996621 26.64009034 -59.52703788 27.06734588 -70.125 32.75 C-71.16479004 33.28125488 -71.16479004 33.28125488 -72.22558594 33.82324219 C-75.84085276 35.7064413 -79.04984781 37.71060798 -82.25 40.25 C-92.35046769 47.32224398 -108.73816107 47.3776587 -120.63989258 49.04956055 C-121.43032959 49.16082275 -122.2207666 49.27208496 -123.03515625 49.38671875 C-123.7300415 49.48170654 -124.42492676 49.57669434 -125.14086914 49.67456055 C-127.22072817 49.99140251 -127.22072817 49.99140251 -130 51 C-130.12375 52.299375 -130.2475 53.59875 -130.375 54.9375 C-130.5859375 57.15234375 -130.5859375 57.15234375 -131 59 C-131.99 59.495 -131.99 59.495 -133 60 C-133.68729254 62.11846285 -133.68729254 62.11846285 -134.125 64.5625 C-134.29257813 65.38878906 -134.46015625 66.21507812 -134.6328125 67.06640625 C-134.75398438 67.70449219 -134.87515625 68.34257812 -135 69 C-135.33 69 -135.66 69 -136 69 C-136.05395478 67.37536158 -136.09277195 65.75021459 -136.125 64.125 C-136.15980469 62.76761719 -136.15980469 62.76761719 -136.1953125 61.3828125 C-136 59 -136 59 -134 57 C-133.731875 55.88625 -133.46375 54.7725 -133.1875 53.625 C-131.78218062 49.33507767 -130.75579639 48.40152933 -127 46 C-124.26743281 45.30917134 -121.75236575 44.81061787 -118.98046875 44.4296875 C-117.3914647 44.1774992 -115.80276934 43.9233597 -114.21435547 43.66748047 C-113.39175232 43.53903748 -112.56914917 43.41059448 -111.72161865 43.27825928 C-97.07060537 40.94681476 -85.83664625 38.27439746 -74 29 C-61.08451474 21.54542462 -46.68305521 21.66973119 -32.1875 21.375 C-30.60870521 21.33670258 -29.02992869 21.29764464 -27.45117188 21.2578125 C-23.63426763 21.16313349 -19.8172667 21.07865379 -16 21 C-16.495 20.01 -16.495 20.01 -17 19 C-18.03994013 9.07599989 -18.03994013 9.07599989 -15.953125 4.91015625 C-11.36928199 -0.60393725 -6.78752468 -0.77036323 0 0 Z " fill="#0866A6" transform="translate(185,63)"/>
<path d="M0 0 C3.85544798 1.99657127 5.59805092 3.39707638 8 7 C9.11089174 14.15620956 7.38527483 19.74328671 4 26 C4.99 26.33 5.98 26.66 7 27 C6.67 27.99 6.34 28.98 6 30 C3.68152126 30.7166207 1.34680297 31.38242027 -1 32 C-1.99 32.99 -1.99 32.99 -3 34 C-5.44062339 33.76761591 -6.65092232 33.34490036 -8.40388489 31.61291504 C-9.05438057 30.80388733 -9.05438057 30.80388733 -9.71801758 29.97851562 C-12.08605921 27.50072114 -13.56256398 26.56298259 -16.99487305 26.28710938 C-18.50055503 26.27464109 -20.00676749 26.29521755 -21.51171875 26.34375 C-22.72502617 26.34936951 -22.72502617 26.34936951 -23.96284485 26.35510254 C-25.66997835 26.36850093 -27.37705265 26.39624686 -29.08374023 26.4375 C-31.662545 26.49940099 -34.23888731 26.51941417 -36.81835938 26.53125 C-48.61996621 26.64009034 -59.52703788 27.06734588 -70.125 32.75 C-71.16479004 33.28125488 -71.16479004 33.28125488 -72.22558594 33.82324219 C-75.84085276 35.7064413 -79.04984781 37.71060798 -82.25 40.25 C-92.35046769 47.32224398 -108.73816107 47.3776587 -120.63989258 49.04956055 C-121.43032959 49.16082275 -122.2207666 49.27208496 -123.03515625 49.38671875 C-123.7300415 49.48170654 -124.42492676 49.57669434 -125.14086914 49.67456055 C-127.22072817 49.99140251 -127.22072817 49.99140251 -130 51 C-130.12375 52.299375 -130.2475 53.59875 -130.375 54.9375 C-130.5859375 57.15234375 -130.5859375 57.15234375 -131 59 C-131.99 59.495 -131.99 59.495 -133 60 C-133.68729254 62.11846285 -133.68729254 62.11846285 -134.125 64.5625 C-134.29257813 65.38878906 -134.46015625 66.21507812 -134.6328125 67.06640625 C-134.75398438 67.70449219 -134.87515625 68.34257812 -135 69 C-135.33 69 -135.66 69 -136 69 C-136.05395478 67.37536158 -136.09277195 65.75021459 -136.125 64.125 C-136.15980469 62.76761719 -136.15980469 62.76761719 -136.1953125 61.3828125 C-136 59 -136 59 -134 57 C-133.731875 55.88625 -133.46375 54.7725 -133.1875 53.625 C-131.78218062 49.33507767 -130.75579639 48.40152933 -127 46 C-124.26743281 45.30917134 -121.75236575 44.81061787 -118.98046875 44.4296875 C-117.3914647 44.1774992 -115.80276934 43.9233597 -114.21435547 43.66748047 C-113.39175232 43.53903748 -112.56914917 43.41059448 -111.72161865 43.27825928 C-97.07060537 40.94681476 -85.83664625 38.27439746 -74 29 C-61.08451474 21.54542462 -46.68305521 21.66973119 -32.1875 21.375 C-30.60870521 21.33670258 -29.02992869 21.29764464 -27.45117188 21.2578125 C-23.63426763 21.16313349 -19.8172667 21.07865379 -16 21 C-16.495 20.01 -16.495 20.01 -17 19 C-18.03994013 9.07599989 -18.03994013 9.07599989 -15.953125 4.91015625 C-11.36928199 -0.60393725 -6.78752468 -0.77036323 0 0 Z " fill="#0F6CAA" transform="translate(185,63)"/>
<path d="M0 0 C3.26269829 1.29148474 4.5619688 2.48644618 6.8125 5.125 C8.49118858 9.18919342 8.92968895 12.67620852 8 17 C5.68127843 20.92286857 3.35266518 23.54911161 -1 25 C-4.76854983 25.50247331 -8.41269044 25.83718859 -11.8515625 24.0234375 C-14.66569319 21.76381532 -17.0045143 19.48419995 -18 16 C-18.47235231 11.11902613 -18.52269768 8.97329912 -16.1875 4.625 C-11.49136709 -1.01035949 -6.87502052 -0.64516322 0 0 Z " fill="#0F6CAA" transform="translate(128,157)"/>
<path d="M0 0 C4.09613637 1.80992072 6.73195328 4.1359204 9 8 C9.70289206 12.29545146 9.47565291 15.84841928 7.8125 19.875 C5.15722613 22.98807971 2.99804331 24.66391508 -1.11328125 25.35546875 C-5.26763753 25.61380687 -8.11792301 25.38613467 -11.4375 22.75 C-14.81439385 19.12601636 -15.82874435 17.54130086 -16.375 12.625 C-15.92515417 8.27649031 -14.79790424 6.32723747 -12 3 C-8.06991695 -0.18655382 -4.99020009 -0.5346643 0 0 Z " fill="#F8FBFC" transform="translate(197,121)"/>
<path d="M0 0 C5.13656401 1.81290495 7.56523417 4.13046834 10 9 C10.61454266 13.30179863 10.31986327 15.38396703 8.3125 19.25 C5.54131763 22.54546012 3.45309777 24.64101008 -0.921875 25.28125 C-5.41340304 25.48387533 -8.43631651 24.95276632 -12 22 C-15.37048828 18.16461678 -15.56492352 14.29624224 -15.42578125 9.375 C-14.76914481 5.712294 -12.91095172 4.16628965 -10 2 C-6.25816125 -0.49455917 -4.43756964 -0.37606522 0 0 Z " fill="#F8FBFC" transform="translate(86,121)"/>
<path d="M0 0 C3.5578125 -0.12375 3.5578125 -0.12375 7.1875 -0.25 C7.92508545 -0.28641602 8.6626709 -0.32283203 9.42260742 -0.36035156 C12.99127588 -0.42011049 14.90544515 -0.05845663 17.95703125 1.828125 C20 4 20 4 20.5 7 C19.96250906 10.22494561 19.2969155 11.7030845 17 14 C16.34 14 15.68 14 15 14 C16.65 17.63 18.3 21.26 20 25 C17.69 25 15.38 25 13 25 C9 18.25 9 18.25 9 16 C8.34 16 7.68 16 7 16 C7 18.97 7 21.94 7 25 C4.69 25 2.38 25 0 25 C0 16.75 0 8.5 0 0 Z " fill="#126EAB" transform="translate(139,157)"/>
<path d="M0 0 C1.98 0 3.96 0 6 0 C7.96525575 2.18762413 9.36775377 4.03406315 10.875 6.5 C11.2771875 7.12003906 11.679375 7.74007812 12.09375 8.37890625 C13.08131301 9.90727758 14.04323314 11.45216384 15 13 C15.33 8.71 15.66 4.42 16 0 C17.98 0 19.96 0 22 0 C22 8.25 22 16.5 22 25 C20.02 25 18.04 25 16 25 C13.69921875 22.6640625 13.69921875 22.6640625 11.6875 19.625 C11.01074219 18.62726563 10.33398438 17.62953125 9.63671875 16.6015625 C8 14 8 14 7 12 C6.67 16.29 6.34 20.58 6 25 C4.02 25 2.04 25 0 25 C0 16.75 0 8.5 0 0 Z " fill="#0A69A8" transform="translate(74,157)"/>
<path d="M0 0 C2.05078125 0.03255208 4.1015625 0.06510417 6.15234375 0.09765625 C7.49352228 3.69895246 8.82392765 7.30413484 10.15234375 10.91015625 C10.53390625 11.93431641 10.91546875 12.95847656 11.30859375 14.01367188 C11.66953125 14.99658203 12.03046875 15.97949219 12.40234375 16.9921875 C12.90507812 18.35114136 12.90507812 18.35114136 13.41796875 19.73754883 C14.15234375 22.09765625 14.15234375 22.09765625 14.15234375 25.09765625 C12.17234375 25.09765625 10.19234375 25.09765625 8.15234375 25.09765625 C7.82234375 23.77765625 7.49234375 22.45765625 7.15234375 21.09765625 C3.85234375 21.09765625 0.55234375 21.09765625 -2.84765625 21.09765625 C-3.17765625 22.41765625 -3.50765625 23.73765625 -3.84765625 25.09765625 C-6.15765625 25.09765625 -8.46765625 25.09765625 -10.84765625 25.09765625 C-3.79152071 0.2003975 -3.79152071 0.2003975 0 0 Z " fill="#126FAB" transform="translate(200.84765625,156.90234375)"/>
<path d="M0 0 C-2 3 -2 3 -4.0390625 3.44921875 C-4.89242187 3.52785156 -5.74578125 3.60648437 -6.625 3.6875 C-16.22510441 5.19067424 -25.67660064 10.24033897 -33.25 16.25 C-43.35046769 23.32224398 -59.73816107 23.3776587 -71.63989258 25.04956055 C-72.43032959 25.16082275 -73.2207666 25.27208496 -74.03515625 25.38671875 C-74.7300415 25.48170654 -75.42492676 25.57669434 -76.14086914 25.67456055 C-78.22072817 25.99140251 -78.22072817 25.99140251 -81 27 C-81.185625 28.9490625 -81.185625 28.9490625 -81.375 30.9375 C-81.5859375 33.15234375 -81.5859375 33.15234375 -82 35 C-82.99 35.495 -82.99 35.495 -84 36 C-84.68729254 38.11846285 -84.68729254 38.11846285 -85.125 40.5625 C-85.29257813 41.38878906 -85.46015625 42.21507812 -85.6328125 43.06640625 C-85.75398438 43.70449219 -85.87515625 44.34257812 -86 45 C-86.33 45 -86.66 45 -87 45 C-87.05395478 43.37536158 -87.09277195 41.75021459 -87.125 40.125 C-87.15980469 38.76761719 -87.15980469 38.76761719 -87.1953125 37.3828125 C-87 35 -87 35 -85 33 C-84.731875 31.88625 -84.46375 30.7725 -84.1875 29.625 C-82.78218062 25.33507767 -81.75579639 24.40152933 -78 22 C-75.26743281 21.30917134 -72.75236575 20.81061787 -69.98046875 20.4296875 C-68.3914647 20.1774992 -66.80276934 19.9233597 -65.21435547 19.66748047 C-64.39175232 19.53903748 -63.56914917 19.41059448 -62.72161865 19.27825928 C-48.04815986 16.94324297 -36.8726155 14.2446848 -25 5 C-16.57724706 0.37222961 -9.63056852 -1.76887993 0 0 Z " fill="#1771AD" transform="translate(136,87)"/>
<path d="M0 0 C6.55758684 1.67154174 6.55758684 1.67154174 9.0625 3.53125 C13.51276443 5.75638221 17.89996872 5.57202747 22.8125 5.6875 C23.79154297 5.72166016 24.77058594 5.75582031 25.77929688 5.79101562 C28.18608345 5.87319858 30.59251945 5.94244433 33 6 C34.08546976 9.19785698 35.09140632 12.35343776 35.9375 15.625 C36.94293655 18.81873963 38.01157039 20.40639616 40 23 C41.94340936 29.00690165 41.63812488 35.83746568 39.875 41.8125 C37.6072584 45.66766072 35.71193049 47.52537967 32 50 C31.01 49.67 30.02 49.34 29 49 C29.25 47.1875 29.25 47.1875 30 45 C30.639375 44.525625 31.27875 44.05125 31.9375 43.5625 C34.59600007 41.5484848 35.14195459 40.2176703 36 37 C36.35365727 31.51831232 35.88391208 27.23308911 34 22 C33.34 21.34 32.68 20.68 32 20 C31.3671875 17.8359375 31.3671875 17.8359375 30.875 15.375 C30.62363281 14.14910156 30.62363281 14.14910156 30.3671875 12.8984375 C30.24601562 12.27195312 30.12484375 11.64546875 30 11 C28.25976562 11.10441406 28.25976562 11.10441406 26.484375 11.2109375 C14.5412387 11.70520689 7.07205686 9.71470457 -3 3 C-2.34 3 -1.68 3 -1 3 C-0.67 2.01 -0.34 1.02 0 0 Z " fill="#116EAB" transform="translate(192,90)"/>
<path d="M0 0 C2.5625 1.875 2.5625 1.875 4 4 C4 4.99 4 5.98 4 7 C1.69 7 -0.62 7 -3 7 C-3.33 6.34 -3.66 5.68 -4 5 C-4.99 5 -5.98 5 -7 5 C-7 5.99 -7 6.98 -7 8 C-6.28972656 8.34933594 -5.57945313 8.69867188 -4.84765625 9.05859375 C-3.92855469 9.51363281 -3.00945313 9.96867188 -2.0625 10.4375 C-1.14597656 10.88996094 -0.22945312 11.34242188 0.71484375 11.80859375 C3 13 3 13 4 14 C4.46054122 18.06811409 4.66005471 20.16960859 2.0625 23.4375 C-2.05252645 25.53700329 -5.46851522 25.96693527 -10 25 C-13.0625 22.6875 -13.0625 22.6875 -15 20 C-15 19.01 -15 18.02 -15 17 C-12.69 17 -10.38 17 -8 17 C-7.67 17.66 -7.34 18.32 -7 19 C-5.68 19 -4.36 19 -3 19 C-3.33 18.01 -3.66 17.02 -4 16 C-5.76855511 15.08902006 -5.76855511 15.08902006 -7.875 14.5 C-11.01245657 13.52750424 -12.91530098 12.5883419 -15 10 C-15.5625 7.125 -15.5625 7.125 -15 4 C-10.56016113 -1.35057505 -6.60647041 -2.0935115 0 0 Z " fill="#1671AC" transform="translate(46,157)"/>
<path d="M0 0 C3.3125 -0.3125 3.3125 -0.3125 7 0 C8.95578117 2.39740918 10 3.87586608 10 7 C10.66 7 11.32 7 12 7 C12.309375 6.030625 12.61875 5.06125 12.9375 4.0625 C14 1 14 1 15 0 C17.33297433 -0.04092937 19.66705225 -0.04241723 22 0 C21.37755401 1.27208622 20.75193233 2.54261882 20.125 3.8125 C19.77695313 4.52019531 19.42890625 5.22789062 19.0703125 5.95703125 C18 8 18 8 16 11 C16.35894172 14.2239493 17.78499888 16.46128038 19.5625 19.125 C22 22.78470255 22 22.78470255 22 25 C18.75 25.375 18.75 25.375 15 25 C12.5625 22 12.5625 22 11 19 C10.360625 19.804375 9.72125 20.60875 9.0625 21.4375 C7 24 7 24 6 25 C3.66702567 25.04092937 1.33294775 25.04241723 -1 25 C-0.47148437 24.19175781 0.05703125 23.38351563 0.6015625 22.55078125 C1.26929688 21.48214844 1.93703125 20.41351563 2.625 19.3125 C3.29789063 18.25675781 3.97078125 17.20101562 4.6640625 16.11328125 C6.3158926 13.1237309 6.3158926 13.1237309 5.34375 10.3046875 C4.25311709 8.43412523 3.07608712 6.61413067 1.875 4.8125 C0 2 0 2 0 0 Z " fill="#0D6CAA" transform="translate(218,157)"/>
<path d="M0 0 C1.423125 -0.061875 2.84625 -0.12375 4.3125 -0.1875 C5.51326172 -0.23970703 5.51326172 -0.23970703 6.73828125 -0.29296875 C9 0 9 0 10.8125 1.359375 C12 3 12 3 11.6875 5.4375 C11.460625 6.283125 11.23375 7.12875 11 8 C10.63019987 12.04622502 10.63019987 12.04622502 13 15 C13.81381795 13.06305322 14.62600916 11.12542289 15.4375 9.1875 C15.88996094 8.10855469 16.34242188 7.02960938 16.80859375 5.91796875 C17.60375013 3.9704874 18.33479648 1.99561057 19 0 C20.98 0 22.96 0 25 0 C25.83698386 2.45714547 26.66972424 4.91558857 27.5 7.375 C27.73847656 8.07367188 27.97695312 8.77234375 28.22265625 9.4921875 C30 14.7734375 30 14.7734375 30 17 C28.68 17 27.36 17 26 17 C25.67 16.01 25.34 15.02 25 14 C22.69 13.67 20.38 13.34 18 13 C18 14.32 18 15.64 18 17 C14.94928825 17.287803 12.03939738 17.4472872 9 17 C6.89638304 14.5776532 6 13.21754366 6 10 C5.34 10 4.68 10 4 10 C4 9.34 4 8.68 4 8 C4.99 7.67 5.98 7.34 7 7 C7 6.01 7 5.02 7 4 C5.68 3.67 4.36 3.34 3 3 C3 7.62 3 12.24 3 17 C2.01 17 1.02 17 0 17 C0 11.39 0 5.78 0 0 Z " fill="#156FAC" transform="translate(134,197)"/>
<path d="M0 0 C5.28 0 10.56 0 16 0 C16 1.65 16 3.3 16 5 C12.7 5 9.4 5 6 5 C6 6.65 6 8.3 6 10 C8.64 10 11.28 10 14 10 C14 11.32 14 12.64 14 14 C11.36 14 8.72 14 6 14 C6 15.98 6 17.96 6 20 C8.97 20 11.94 20 15 20 C15 21.65 15 23.3 15 25 C10.05 25 5.1 25 0 25 C0 16.75 0 8.5 0 0 Z " fill="#0A6AA9" transform="translate(54,157)"/>
<path d="M0 0 C2.5 1.4375 2.5 1.4375 4 4 C4.76004105 8.31481639 4.73570183 11.74317604 2.5 15.5625 C-1.03886571 17.59734778 -4.01905863 17.92181634 -8 17 C-10.6483191 14.88134472 -11.73807669 13.37782575 -12.375 10.02734375 C-12.57568891 6.67207596 -12.23027695 4.38379492 -10.5 1.5 C-6.95982944 -0.62410234 -4.02518275 -0.7835909 0 0 Z " fill="#1771AC" transform="translate(99,197)"/>
<path d="M0 0 C6.27 0 12.54 0 19 0 C19 1.32 19 2.64 19 4 C17.02 4 15.04 4 13 4 C13 10.93 13 17.86 13 25 C11.02 25 9.04 25 7 25 C7 18.4 7 11.8 7 5 C4.69 5 2.38 5 0 5 C0 3.35 0 1.7 0 0 Z " fill="#0869A8" transform="translate(169,157)"/>
<path d="M0 0 C0.33 0 0.66 0 1 0 C1 8.25 1 16.5 1 25 C-0.65 25 -2.3 25 -4 25 C-4 23.35 -4 21.7 -4 20 C-6.97 20 -9.94 20 -13 20 C-13 18.02 -13 16.04 -13 14 C-10.36 14 -7.72 14 -5 14 C-5 12.68 -5 11.36 -5 10 C-7.64 10 -10.28 10 -13 10 C-13 8.35 -13 6.7 -13 5 C-12.31292969 4.93941406 -11.62585937 4.87882813 -10.91796875 4.81640625 C-10.01691406 4.73261719 -9.11585937 4.64882812 -8.1875 4.5625 C-6.84751953 4.44068359 -6.84751953 4.44068359 -5.48046875 4.31640625 C-2.87256441 4.06510233 -2.87256441 4.06510233 0 3 C0 2.01 0 1.02 0 0 Z " fill="#DEEBF3" transform="translate(73,157)"/>
<path d="M0 0 C3.05623277 2.09110663 3.86463014 3.29306849 4.5625 6.9375 C3.7998726 11.08958249 2.40406682 12.55795207 -1 15 C-4.75470151 14.9263784 -6.32841161 14.67158839 -9 12 C-9.30078125 9.94140625 -9.30078125 9.94140625 -9.3125 7.5625 C-9.32925781 6.78003906 -9.34601563 5.99757812 -9.36328125 5.19140625 C-8.48209723 -0.12412314 -4.80602406 -0.68657487 0 0 Z " fill="#F1F7FA" transform="translate(126,162)"/>
<path d="M0 0 C1.98 0 3.96 0 6 0 C6.83919398 2.26882087 7.67151724 4.53977027 8.5 6.8125 C8.73847656 7.45509766 8.97695312 8.09769531 9.22265625 8.75976562 C10.27068746 11.64933739 11 13.90076061 11 17 C9.68 17 8.36 17 7 17 C6.67 15.68 6.34 14.36 6 13 C4.02 13.33 2.04 13.66 0 14 C-0.33 14.99 -0.66 15.98 -1 17 C-2.32 17 -3.64 17 -5 17 C-4.35083537 10.99522721 -2.14204997 5.599219 0 0 Z " fill="#106DAA" transform="translate(185,197)"/>
<path d="M0 0 C1.98 0 3.96 0 6 0 C6 8.25 6 16.5 6 25 C4.02 25 2.04 25 0 25 C0 16.75 0 8.5 0 0 Z " fill="#136DAB" transform="translate(101,157)"/>
<path d="M0 0 C1.98 0 3.96 0 6 0 C6 8.25 6 16.5 6 25 C4.02 25 2.04 25 0 25 C0 16.75 0 8.5 0 0 Z " fill="#0568A7" transform="translate(244,157)"/>
<path d="M0 0 C6.19411154 7.63940424 7.82751785 13.20770549 7 23 C5.28192275 28.82237289 2.93660773 31.70892818 -2 35 C-2.99 34.67 -3.98 34.34 -5 34 C-4.75 32.1875 -4.75 32.1875 -4 30 C-3.360625 29.525625 -2.72125 29.05125 -2.0625 28.5625 C0.59600007 26.5484848 1.14195459 25.2176703 2 22 C2.35689368 16.46814797 1.81302963 12.22579128 0 7 C-0.33 6.67 -0.66 6.34 -1 6 C-1.125 3.5 -1.125 3.5 -1 1 C-0.67 0.67 -0.34 0.34 0 0 Z " fill="#0C6AA8" transform="translate(226,105)"/>
<path d="M0 0 C2.00349261 0.31165441 4.00326516 0.64763503 6 1 C7.67343448 0.70250054 9.34305915 0.37872934 11 0 C12 1 12 1 12.3125 4.3125 C12 8 12 8 10.3125 10.4375 C8 12 8 12 5.5625 12.5625 C1.81148834 11.7391072 0.32467326 9.98886562 -2 7 C-2.4375 4.3125 -2.4375 4.3125 -2 2 C-1.34 1.34 -0.68 0.68 0 0 Z " fill="#0A69A8" transform="translate(175,68)"/>
<path d="M0 0 C4.64122376 1.88351033 7.40856475 3.69391382 9.5 8.3125 C9.7475 9.6428125 9.7475 9.6428125 10 11 C9.34 11 8.68 11 8 11 C7.1028125 9.576875 7.1028125 9.576875 6.1875 8.125 C3.82045555 4.74350793 2.93654629 3.91547588 -1 3 C-6.01032466 2.55264958 -8.9820435 2.90043356 -13 6 C-15.83628194 10.25442291 -15.51845373 14.00689181 -15 19 C-13.74249746 22.01800609 -12.85191151 23.41247482 -10.1875 25.25 C-7.48694827 26.17590345 -4.82435451 26.61486075 -2 27 C-4.10113695 28.27569029 -5.45073436 29.03543649 -7.9375 28.875 C-10.78099709 27.6686679 -12.75962836 26.11927047 -15 24 C-15.8125 21.75 -15.8125 21.75 -16 20 C-16.66 20 -17.32 20 -18 20 C-19.32476319 13.01488498 -19.32476319 13.01488498 -18 8.875 C-13.28269851 2.09387911 -8.57745607 -1.9534275 0 0 Z " fill="#2979B1" transform="translate(87,119)"/>
<path d="M0 0 C4.63235294 2.26470588 4.63235294 2.26470588 6 5 C6.39447548 9.18144011 6.45035186 11.30946048 4.125 14.875 C1.62545713 17.37454287 0.67824042 17.90956794 -2.8125 18.375 C-6 18 -6 18 -8.8125 15.875 C-11.25055207 12.67070299 -12 11.01064998 -12 7 C-9.3735134 1.22172949 -6.30147007 -0.63014701 0 0 Z M-8 3 C-8.66 3.66 -9.32 4.32 -10 5 C-9.82816891 9.91952123 -9.82816891 9.91952123 -7.25 13.9375 C-4.50508782 15.23370853 -2.99925788 15.52487013 0 15 C2.45714369 13.54331238 2.45714369 13.54331238 4 11 C4.33417929 7.3324787 4.33417929 7.3324787 4 4 C0.846632 3.29925156 -1.72724974 3 -5 3 C-5.99 3 -6.98 3 -8 3 Z " fill="#D6E6F0" transform="translate(183,65)"/>
<path d="M0 0 C2.01822917 0.06510417 4.03645833 0.13020833 6.0546875 0.1953125 C6.0546875 1.1853125 6.0546875 2.1753125 6.0546875 3.1953125 C4.0746875 3.1953125 2.0946875 3.1953125 0.0546875 3.1953125 C0.74325685 6.39244608 0.74325685 6.39244608 3.5546875 7.5703125 C6.0546875 9.1953125 6.0546875 9.1953125 7.0546875 11.6953125 C7.0546875 14.1953125 7.0546875 14.1953125 6.1171875 16.0078125 C2.82250638 17.90475012 -0.18769714 17.38011326 -3.9453125 17.1953125 C-3.6153125 15.8753125 -3.2853125 14.5553125 -2.9453125 13.1953125 C0.0246875 13.6903125 0.0246875 13.6903125 3.0546875 14.1953125 C2.31492279 10.9027413 2.31492279 10.9027413 -1.0078125 9.3203125 C-3.9453125 7.1953125 -3.9453125 7.1953125 -4.4453125 4.5703125 C-3.82806526 1.63838812 -3.10817598 0.31206586 0 0 Z " fill="#1871AD" transform="translate(109.9453125,196.8046875)"/>
<path d="M0 0 C1.875 0.125 1.875 0.125 4 1 C5.59844485 4.59650092 6 7.03397243 6 11 C6.66 11 7.32 11 8 11 C8.66 7.7 9.32 4.4 10 1 C11.32 0.67 12.64 0.34 14 0 C12.83348574 5.92863717 11.24480642 11.38798394 9 17 C7.68 17 6.36 17 5 17 C4.16080602 14.73117913 3.32848276 12.46022973 2.5 10.1875 C2.26152344 9.54490234 2.02304688 8.90230469 1.77734375 8.24023438 C0.72931254 5.35066261 0 3.09923939 0 0 Z " fill="#136FAB" transform="translate(165,197)"/>
<path d="M0 0 C4.23910579 1.51396635 5.93638856 4.09387835 8 8 C8 10.31 8 12.62 8 15 C12.62 15 17.24 15 22 15 C22 15.99 22 16.98 22 18 C20.97519531 18.01417969 19.95039063 18.02835938 18.89453125 18.04296875 C17.53381029 18.08989016 16.17313459 18.13813744 14.8125 18.1875 C13.80219727 18.19620117 13.80219727 18.19620117 12.77148438 18.20507812 C8.82396322 18.37838393 7.15778548 18.8645103 4.125 21.46875 C3.42375 22.3040625 2.7225 23.139375 2 24 C-1.73583411 26.70525918 -5.5545595 26.14818135 -10 26 C-7.29964259 23.29964259 -4.86920086 23.28423013 -1.19140625 22.66015625 C1.34916231 21.89481563 2.36924608 21.06961124 4 19 C5.35915332 14.92254004 5.66173293 11.25902575 5 7 C3.58998188 4.29335683 1.99752595 2.34709299 0 0 Z " fill="#1770AC" transform="translate(200,122)"/>
<path d="M0 0 C4.29 0 8.58 0 13 0 C13 0.99 13 1.98 13 3 C11.68 3 10.36 3 9 3 C9 7.62 9 12.24 9 17 C7.68 17 6.36 17 5 17 C5 12.38 5 7.76 5 3 C3.35 3 1.7 3 0 3 C0 2.01 0 1.02 0 0 Z " fill="#277CB3" transform="translate(118,197)"/>
<path d="M0 0 C0.66 0.33 1.32 0.66 2 1 C-1.16875994 7.38822004 -5.46409404 11.81938968 -10.5625 16.75 C-11.33013672 17.50410156 -12.09777344 18.25820313 -12.88867188 19.03515625 C-14.30979871 20.4302642 -15.73400093 21.82225183 -17.16235352 23.20996094 C-18.78832765 24.79381139 -20.39917601 26.39078823 -22 28 C-22.66 27.67 -23.32 27.34 -24 27 C-14.86690001 15.77643491 -14.86690001 15.77643491 -10.203125 10.43359375 C-8.86781606 8.89004914 -8.86781606 8.89004914 -7.375 6.625 C-6 5 -6 5 -3.9375 4.5 C-1.78364885 4.18476569 -1.78364885 4.18476569 -0.75 1.9375 C-0.5025 1.298125 -0.255 0.65875 0 0 Z " fill="#247AB2" transform="translate(53,27)"/>
<path d="M0 0 C0.33 0 0.66 0 1 0 C1 2.64 1 5.28 1 8 C12.55 8 24.1 8 36 8 C36 8.33 36 8.66 36 9 C34.50218994 8.99045288 34.50218994 8.99045288 32.97412109 8.98071289 C29.24988309 8.96622291 25.52717761 8.99771642 21.80322266 9.04272461 C20.19520293 9.05582029 18.58703247 9.05663882 16.97900391 9.04467773 C7.90400956 8.63124106 7.90400956 8.63124106 -0.31933594 11.58544922 C-1.92532773 13.42213453 -1.92532773 13.42213453 -3.00537109 15.40405273 C-4 17 -4 17 -7 18 C-8.39439664 18.06665376 -9.79169875 18.08538199 -11.1875 18.0625 C-13.0746875 18.0315625 -13.0746875 18.0315625 -15 18 C-14.42507812 17.71898437 -13.85015625 17.43796875 -13.2578125 17.1484375 C-11.08030245 16.04084588 -8.97251712 14.87712999 -6.875 13.625 C-6.19179687 13.22539062 -5.50859375 12.82578125 -4.8046875 12.4140625 C-1.53588399 9.85279222 -1.04625583 7.27753501 -0.375 3.25 C-0.25125 2.1775 -0.1275 1.105 0 0 Z " fill="#0B65A6" transform="translate(96,130)"/>
<path d="M0 0 C-0.99 0.33 -1.98 0.66 -3 1 C-2.67 1.66 -2.34 2.32 -2 3 C-3.24716797 3.19916016 -3.24716797 3.19916016 -4.51953125 3.40234375 C-5.60621094 3.57894531 -6.69289063 3.75554687 -7.8125 3.9375 C-8.89144531 4.11152344 -9.97039063 4.28554687 -11.08203125 4.46484375 C-14.04933356 4.93871921 -14.04933356 4.93871921 -17 6 C-17.185625 7.9490625 -17.185625 7.9490625 -17.375 9.9375 C-17.5859375 12.15234375 -17.5859375 12.15234375 -18 14 C-18.99 14.495 -18.99 14.495 -20 15 C-20.68729254 17.11846285 -20.68729254 17.11846285 -21.125 19.5625 C-21.29257812 20.38878906 -21.46015625 21.21507812 -21.6328125 22.06640625 C-21.75398438 22.70449219 -21.87515625 23.34257812 -22 24 C-22.33 24 -22.66 24 -23 24 C-23.05395478 22.37536158 -23.09277195 20.75021459 -23.125 19.125 C-23.15980469 17.76761719 -23.15980469 17.76761719 -23.1953125 16.3828125 C-23 14 -23 14 -21 12 C-20.731875 10.88625 -20.46375 9.7725 -20.1875 8.625 C-18.77978508 4.32776498 -17.91617897 3.20285067 -14 1 C-9.18877816 -0.43478901 -4.8825676 -1.56738313 0 0 Z " fill="#2E7EB4" transform="translate(72,108)"/>
<path d="M0 0 C0.33 0 0.66 0 1 0 C1 2.31 1 4.62 1 7 C15.19 7 29.38 7 44 7 C44 7.99 44 8.98 44 10 C35.09 10 26.18 10 17 10 C17 9.67 17 9.34 17 9 C11.39 8.67 5.78 8.34 0 8 C0 5.36 0 2.72 0 0 Z " fill="#3C89BB" transform="translate(97,130)"/>
<path d="M0 0 C2.4375 0.1875 2.4375 0.1875 3.4375 1.1875 C3.5354057 2.68488124 3.56724864 4.18692892 3.5625 5.6875 C3.56507812 6.5021875 3.56765625 7.316875 3.5703125 8.15625 C3.4375 10.1875 3.4375 10.1875 2.4375 11.1875 C0 11.375 0 11.375 -2.5625 11.1875 C-4.5625 9.1875 -4.5625 9.1875 -4.8125 5.6875 C-4.52167932 1.61601046 -4.20623277 0.30777313 0 0 Z " fill="#F5F9FB" transform="translate(95.5625,199.8125)"/>
<path d="M0 0 C19.81725888 3.81725888 19.81725888 3.81725888 23 7 C24.051875 7.12375 25.10375 7.2475 26.1875 7.375 C30.69306763 8.11361764 33.17559627 9.58047928 37 12 C36.67 12.66 36.34 13.32 36 14 C31.34179104 13.41508117 27.58528068 12.11195652 23.3125 10.1875 C18.07530662 7.86666899 12.80754415 5.75827437 7.40234375 3.859375 C4.90807554 2.96711645 2.45392398 1.9973167 0 1 C0 0.67 0 0.34 0 0 Z " fill="#3B89C0" transform="translate(173,3)"/>
<path d="M0 0 C1.02574883 0.00212242 1.02574883 0.00212242 2.07221985 0.00428772 C4.25261847 0.00987749 6.43291376 0.02242803 8.61328125 0.03515625 C10.09309747 0.04017258 11.57291531 0.04473525 13.05273438 0.04882812 C16.67711682 0.05984354 20.30143895 0.07710113 23.92578125 0.09765625 C23.26578125 1.08765625 22.60578125 2.07765625 21.92578125 3.09765625 C19.45087011 3.43580373 17.21226437 3.58637964 14.73046875 3.609375 C14.02302521 3.6273262 13.31558167 3.6452774 12.58670044 3.66377258 C10.32478822 3.71800067 8.06308841 3.75180941 5.80078125 3.78515625 C4.26819952 3.81831851 2.73564587 3.85280715 1.203125 3.88867188 C-2.55583654 3.97373352 -6.31473375 4.04048378 -10.07421875 4.09765625 C-10.07421875 3.10765625 -10.07421875 2.11765625 -10.07421875 1.09765625 C-6.5359562 -0.0817646 -3.73273149 -0.01523564 0 0 Z " fill="#0261A3" transform="translate(142.07421875,84.90234375)"/>
<path d="M0 0 C6.46478873 1.64788732 6.46478873 1.64788732 9.375 3.5625 C13.10929646 5.60747187 16.80115149 5.73471327 21 6 C21 6.33 21 6.66 21 7 C19.72125 7.12375 18.4425 7.2475 17.125 7.375 C13.65209064 7.69042399 13.65209064 7.69042399 11 10 C9.22769249 9.2116391 7.45720466 8.41918653 5.6875 7.625 C4.70136719 7.18414062 3.71523437 6.74328125 2.69921875 6.2890625 C0 5 0 5 -3 3 C-2.34 3 -1.68 3 -1 3 C-0.67 2.01 -0.34 1.02 0 0 Z " fill="#1A73AE" transform="translate(192,90)"/>
<path d="M0 0 C1.98 0 3.96 0 6 0 C6.99 3.3 7.98 6.6 9 10 C6.36 10 3.72 10 1 10 C1.33 7.69 1.66 5.38 2 3 C1.34 3 0.68 3 0 3 C0 2.01 0 1.02 0 0 Z " fill="#1D75AF" transform="translate(185,197)"/>
<path d="M0 0 C7.32631579 -0.48842105 7.32631579 -0.48842105 10.5 1.8125 C12 4 12 4 12 7 C9.69 7 7.38 7 5 7 C4.67 6.34 4.34 5.68 4 5 C1.97536745 4.34786708 1.97536745 4.34786708 0 4 C0 2.68 0 1.36 0 0 Z " fill="#0E6BA9" transform="translate(38,157)"/>
<path d="M0 0 C0.66 0 1.32 0 2 0 C2.66 1.32 3.32 2.64 4 4 C4.66 3.34 5.32 2.68 6 2 C6.99 5.63 7.98 9.26 9 13 C7.68 13 6.36 13 5 13 C4.67 12.01 4.34 11.02 4 10 C1.03 9.505 1.03 9.505 -2 9 C-2 8.67 -2 8.34 -2 8 C-0.35 7.67 1.3 7.34 3 7 C1.68 6.67 0.36 6.34 -1 6 C-0.67 4.02 -0.34 2.04 0 0 Z " fill="#1973AE" transform="translate(155,201)"/>
<path d="M0 0 C1.65 0 3.3 0 5 0 C5.33 0.66 5.66 1.32 6 2 C5.01 2.495 5.01 2.495 4 3 C3.52998967 6.27555608 3.52998967 6.27555608 3.375 10.0625 C3.30023438 11.35285156 3.22546875 12.64320313 3.1484375 13.97265625 C3.09945312 14.97167969 3.05046875 15.97070312 3 17 C2.01 17 1.02 17 0 17 C0 11.39 0 5.78 0 0 Z " fill="#0869A8" transform="translate(134,197)"/>
<path d="M0 0 C1.875 0.125 1.875 0.125 4 1 C5.59844485 4.59650092 6 7.03397243 6 11 C6.66 11 7.32 11 8 11 C8 11.99 8 12.98 8 14 C6.68 14.33 5.36 14.66 4 15 C3.32779649 13.06441401 2.66241923 11.12645628 2 9.1875 C1.62875 8.10855469 1.2575 7.02960938 0.875 5.91796875 C0 3 0 3 0 0 Z " fill="#277BB2" transform="translate(165,197)"/>
<path d="M0 0 C2.41471197 2.41471197 2.39286266 3.55907583 2.875 6.875 C3.46572288 9.98077032 3.88715216 11.82638793 5.625 14.5 C8.97675174 16.61689584 12.11608297 17.22321659 16 18 C13.89886305 19.27569029 12.54926564 20.03543649 10.0625 19.875 C7.21900291 18.6686679 5.24037164 17.11927047 3 15 C2.1875 12.75 2.1875 12.75 2 11 C1.34 11 0.68 11 0 11 C-1.125 3.375 -1.125 3.375 0 0 Z " fill="#3B85B8" transform="translate(69,128)"/>
<path d="M0 0 C1.32 0.99 2.64 1.98 4 3 C2.51218185 6.78717347 0.38011591 8.77407001 -3 11 C-3.99 10.67 -4.98 10.34 -6 10 C-5.61121002 7.18127263 -5.29189635 6.22804402 -3 4.4375 C-2.34 3.963125 -1.68 3.48875 -1 3 C-0.67 2.01 -0.34 1.02 0 0 Z " fill="#146FAC" transform="translate(227,129)"/>
<path d="M0 0 C2.31 0 4.62 0 7 0 C7.38218767 1.65614657 7.71395102 3.32457024 8 5 C7 6 7 6 3.4375 6.0625 C2.303125 6.041875 1.16875 6.02125 0 6 C0 4.02 0 2.04 0 0 Z " fill="#DBE9F2" transform="translate(145,162)"/>
<path d="M0 0 C0.99 0 1.98 0 3 0 C3 4.62 3 9.24 3 14 C2.01 14 1.02 14 0 14 C0 9.38 0 4.76 0 0 Z " fill="#0767A7" transform="translate(123,200)"/>
<path d="M0 0 C3 1 3 1 5 4 C5.99 2.68 6.98 1.36 8 0 C8.66 1.98 9.32 3.96 10 6 C7.03 6 4.06 6 1 6 C0.34 4.35 -0.32 2.7 -1 1 C-0.67 0.67 -0.34 0.34 0 0 Z " fill="#1871AD" transform="translate(142,208)"/>
<path d="M0 0 C0.33 1.98 0.66 3.96 1 6 C-0.32 6 -1.64 6 -3 6 C-3.33 4.68 -3.66 3.36 -4 2 C-5.98 2 -7.96 2 -10 2 C-10 1.67 -10 1.34 -10 1 C-3.71428571 -1.42857143 -3.71428571 -1.42857143 0 0 Z " fill="#1F77B0" transform="translate(195,208)"/>
<path d="M0 0 C2.475 0.495 2.475 0.495 5 1 C4.67 2.32 4.34 3.64 4 5 C3.01 5 2.02 5 1 5 C1 5.66 1 6.32 1 7 C1.66 7.33 2.32 7.66 3 8 C2.34 8 1.68 8 1 8 C1 9.98 1 11.96 1 14 C0.67 14 0.34 14 0 14 C0 9.38 0 4.76 0 0 Z " fill="#9CC3DC" transform="translate(137,200)"/>
<path d="M0 0 C0.66 0.99 1.32 1.98 2 3 C-4.49919692 9.86026341 -4.49919692 9.86026341 -9.02734375 10.11328125 C-11.01855955 10.12377975 -13.00986185 10.06633794 -15 10 C-12.29964259 7.29964259 -9.86920086 7.28423013 -6.19140625 6.66015625 C-3.65083769 5.89481563 -2.63075392 5.06961124 -1 3 C-0.67 2.01 -0.34 1.02 0 0 Z " fill="#3683B7" transform="translate(205,138)"/>
<path d="M0 0 C0.66 0.66 1.32 1.32 2 2 C1.34773438 1.95359375 0.69546875 1.9071875 0.0234375 1.859375 C-5.90195163 1.61466866 -9.35446837 1.92099662 -14 6 C-15.83300909 8.10575643 -15.83300909 8.10575643 -17 10 C-17 6 -17 6 -15.8203125 4.296875 C-10.92100232 -0.17346332 -6.57184613 -1.24949177 0 0 Z " fill="#1C72AD" transform="translate(198,120)"/>
<path d="M0 0 C3.0625 0.3125 3.0625 0.3125 4.9375 1.8125 C5.30875 2.3075 5.68 2.8025 6.0625 3.3125 C2.8125 4.5 2.8125 4.5 -0.9375 5.3125 C-3.375 3.9375 -3.375 3.9375 -4.9375 2.3125 C-2.9375 0.3125 -2.9375 0.3125 0 0 Z " fill="#E4EFF5" transform="translate(179.9375,64.6875)"/>
<path d="M0 0 C2.89932357 2.39509338 3.50168276 4.31245243 4 8 C2.02 8 0.04 8 -2 8 C-1.125 2.25 -1.125 2.25 0 0 Z " fill="#D9E8F1" transform="translate(202,165)"/>
<path d="M0 0 C2.97 0.99 5.94 1.98 9 3 C9 3.33 9 3.66 9 4 C8.05125 4.12375 7.1025 4.2475 6.125 4.375 C2.91332809 4.71687177 2.91332809 4.71687177 1 7 C0.67 4.69 0.34 2.38 0 0 Z " fill="#0D6BA9" transform="translate(150,205)"/>
<path d="M0 0 C0.66 0 1.32 0 2 0 C1.125 5.75 1.125 5.75 0 8 C-1.32 8 -2.64 8 -4 8 C-4 7.01 -4 6.02 -4 5 C-3.01 5 -2.02 5 -1 5 C-0.67 3.35 -0.34 1.7 0 0 Z " fill="#0767A7" transform="translate(174,206)"/>
<path d="M0 0 C4.62 0 9.24 0 14 0 C14 0.33 14 0.66 14 1 C12.72125 1.12375 11.4425 1.2475 10.125 1.375 C6.65209064 1.69042399 6.65209064 1.69042399 4 4 C2.68 3.34 1.36 2.68 0 2 C0 1.34 0 0.68 0 0 Z " fill="#2A7DB4" transform="translate(199,96)"/>
<path d="M0 0 C0 0.66 0 1.32 0 2 C-1.11375 2.6496875 -1.11375 2.6496875 -2.25 3.3125 C-5.27178496 5.16677714 -6.92480878 7.15621943 -9 10 C-8.84759391 7.33289346 -8.50635081 5.5494129 -6.66796875 3.5546875 C-2.49375 0 -2.49375 0 0 0 Z " fill="#176EAB" transform="translate(79,120)"/>
<path d="M0 0 C0.8353125 0.556875 0.8353125 0.556875 1.6875 1.125 C-2.74326923 4.20192308 -2.74326923 4.20192308 -5.625 3.8125 C-6.181875 3.585625 -6.73875 3.35875 -7.3125 3.125 C-7.3125 2.465 -7.3125 1.805 -7.3125 1.125 C-2.88173077 -1.09038462 -2.88173077 -1.09038462 0 0 Z " fill="#2C799C" transform="translate(86.3125,9.875)"/>
<path d="M0 0 C3.375 -0.125 3.375 -0.125 7 0 C7.66 0.66 8.32 1.32 9 2 C4.545 2.495 4.545 2.495 0 3 C0 2.01 0 1.02 0 0 Z " fill="#0B68A8" transform="translate(85,104)"/>
<path d="M0 0 C0 0.66 0 1.32 0 2 C-2.31 2.33 -4.62 2.66 -7 3 C-6.67 2.34 -6.34 1.68 -6 1 C-6.66 0.34 -7.32 -0.32 -8 -1 C-3.375 -2.25 -3.375 -2.25 0 0 Z " fill="#287CB3" transform="translate(98,104)"/>
<path d="M0 0 C-2.50721538 2.50721538 -4.1688316 2.9806705 -7.6875 3.0625 C-8.8321875 3.0315625 -8.8321875 3.0315625 -10 3 C-10 2.34 -10 1.68 -10 1 C-3.71428571 -1.42857143 -3.71428571 -1.42857143 0 0 Z " fill="#337BB3" transform="translate(196,272)"/>
<path d="M0 0 C1.32 0.33 2.64 0.66 4 1 C4 2.65 4 4.3 4 6 C3.01 6 2.02 6 1 6 C0.67 4.02 0.34 2.04 0 0 Z " fill="#116DAA" transform="translate(165,197)"/>
<path d="M0 0 C3.16115776 1.36983503 3.9927092 1.9890638 6 5 C3.625 5.1875 3.625 5.1875 1 5 C0.34 4.01 -0.32 3.02 -1 2 C-0.67 1.34 -0.34 0.68 0 0 Z " fill="#0C6AA9" transform="translate(89,208)"/>
<path d="M0 0 C0.66 0 1.32 0 2 0 C2.33 1.98 2.66 3.96 3 6 C1.68 6 0.36 6 -1 6 C-0.67 4.02 -0.34 2.04 0 0 Z " fill="#CBE0EC" transform="translate(155,201)"/>
<path d="M0 0 C0 0.66 0 1.32 0 2 C-4.455 2.495 -4.455 2.495 -9 3 C-7.14340032 -0.71319936 -3.69365381 -0.09982848 0 0 Z " fill="#0263A4" transform="translate(77,107)"/>
<path d="M0 0 C0.66 0.99 1.32 1.98 2 3 C-4.625 2.25 -4.625 2.25 -8 0 C-4.71303767 -0.79953138 -3.28976808 -1.09658936 0 0 Z " fill="#2471AD" transform="translate(194,8)"/>
<path d="M0 0 C3 3.75 3 3.75 3 6 C1.02 6 -0.96 6 -3 6 C-2 4 -1 2 0 0 Z " fill="#2B7EB4" transform="translate(149,208)"/>
<path d="M0 0 C0.66 0 1.32 0 2 0 C2.33 1.98 2.66 3.96 3 6 C1.68 6 0.36 6 -1 6 C-0.67 4.02 -0.34 2.04 0 0 Z " fill="#D3E4EF" transform="translate(187,201)"/>
<path d="M0 0 C0.66 0.33 1.32 0.66 2 1 C0.12050295 4.57104439 -1.17053157 6.54744301 -5 8 C-2.25 2.25 -2.25 2.25 0 0 Z " fill="#4073A4" transform="translate(47,32)"/>
<path d="M0 0 C0.33 0.66 0.66 1.32 1 2 C1.66 2 2.32 2 3 2 C3 3.32 3 4.64 3 6 C1.68 6 0.36 6 -1 6 C-0.67 4.02 -0.34 2.04 0 0 Z " fill="#267AB2" transform="translate(181,208)"/>
<path d="M0 0 C2.625 0.9375 2.625 0.9375 5 2 C3.68 2.99 2.36 3.98 1 5 C0.67 4.01 0.34 3.02 0 2 C-0.66 1.67 -1.32 1.34 -2 1 C-1.34 0.67 -0.68 0.34 0 0 Z " fill="#1E76AF" transform="translate(111,92)"/>
<path d="M0 0 C2.31 0.33 4.62 0.66 7 1 C5.1875 1.625 5.1875 1.625 3 2 C2.01 1.34 1.02 0.68 0 0 Z " fill="#285192" transform="translate(176,2)"/>
<path d="M0 0 C0.33 0 0.66 0 1 0 C1 1.65 1 3.3 1 5 C0.67 5 0.34 5 0 5 C0 3.35 0 1.7 0 0 Z " fill="#263FB2" transform="translate(0,167)"/>
<path d="M0 0 C0.33 0 0.66 0 1 0 C1 1.65 1 3.3 1 5 C0.67 5 0.34 5 0 5 C0 3.35 0 1.7 0 0 Z " fill="#263FB2" transform="translate(281,110)"/>
<path d="M0 0 C0 3 0 3 0 3 Z " fill="#004F84" transform="translate(249,233)"/>
<path d="M0 0 C1 4 1 4 1 4 Z " fill="#158AAF" transform="translate(2,176)"/>
<path d="M0 0 C1 4 1 4 1 4 Z " fill="#1583A5" transform="translate(280,172)"/>
<path d="M0 0 C1 4 1 4 1 4 Z " fill="#1583E5" transform="translate(1,172)"/>
<path d="M0 0 C1 4 1 4 1 4 Z " fill="#2F5FDF" transform="translate(281,167)"/>
<path d="M0 0 C1 4 1 4 1 4 Z " fill="#2F5FDF" transform="translate(0,111)"/>
<path d="M0 0 C1 4 1 4 1 4 Z " fill="#1583A5" transform="translate(280,106)"/>
<path d="M0 0 C1 4 1 4 1 4 Z " fill="#1583D0" transform="translate(1,106)"/>
<path d="M0 0 C1 4 1 4 1 4 Z " fill="#0F3F8F" transform="translate(3,99)"/>
<path d="M0 0 C0 3 0 3 0 3 Z " fill="#005FFF" transform="translate(34,45)"/>
<path d="M0 0 C4 1 4 1 4 1 Z " fill="#4C7985" transform="translate(99,3)"/>
<path d="M0 0 C3 1 3 1 3 1 Z " fill="#3163CD" transform="translate(183,277)"/>
<path d="M0 0 C3 1 3 1 3 1 Z " fill="#3163CD" transform="translate(96,277)"/>
<path d="M0 0 C3 1 3 1 3 1 Z " fill="#3F7F7F" transform="translate(186,276)"/>
<path d="M0 0 C3 1 3 1 3 1 Z " fill="#3F7F7F" transform="translate(93,276)"/>
<path d="" fill="#1C388D" transform="translate(0,0)"/>
<path d="" fill="#1C3871" transform="translate(0,0)"/>
<path d="" fill="#1C3163" transform="translate(0,0)"/>
<path d="" fill="#1C46CD" transform="translate(0,0)"/>
<path d="" fill="#1C31B8" transform="translate(0,0)"/>
<path d="" fill="#3F54BF" transform="translate(0,0)"/>
<path d="" fill="#3F54BF" transform="translate(0,0)"/>
<path d="" fill="#1C63CD" transform="translate(0,0)"/>
<path d="" fill="#1C63CD" transform="translate(0,0)"/>
<path d="" fill="#1C4DB8" transform="translate(0,0)"/>
<path d="" fill="#3F54BF" transform="translate(0,0)"/>
<path d="" fill="#1C46CD" transform="translate(0,0)"/>
<path d="" fill="#2A54D4" transform="translate(0,0)"/>
<path d="" fill="#2A468D" transform="translate(0,0)"/>
<path d="" fill="#2A54E9" transform="translate(0,0)"/>
<path d="" fill="#1C388D" transform="translate(0,0)"/>
<path d="" fill="#1C3838" transform="translate(0,0)"/>
<path d="" fill="#1C3838" transform="translate(0,0)"/>
<path d="M0 0 C3 1 3 1 3 1 Z " fill="#153F6A" transform="translate(196,9)"/>
<path d="M0 0 C3 1 3 1 3 1 Z " fill="#314D63" transform="translate(186,5)"/>
<path d="M0 0 C3 1 3 1 3 1 Z " fill="#3163CD" transform="translate(93,5)"/>
<path d="M0 0 C3 1 3 1 3 1 Z " fill="#1C4DD4" transform="translate(183,4)"/>
<path d="M0 0 C3 1 3 1 3 1 Z " fill="#3F7F7F" transform="translate(96,4)"/>
<path d="M0 0 C2 1 2 1 2 1 Z " fill="#5F7FDF" transform="translate(189,275)"/>
<path d="M0 0 C2 1 2 1 2 1 Z " fill="#5F7FDF" transform="translate(91,275)"/>
<path d="M0 0 C2 1 2 1 2 1 Z " fill="#6AD4D4" transform="translate(194,273)"/>
<path d="M0 0 C2 1 2 1 2 1 Z " fill="#6AD4D4" transform="translate(86,273)"/>
<path d="M0 0 C2 1 2 1 2 1 Z " fill="#006A94" transform="translate(196,272)"/>
<path d="M0 0 C2 1 2 1 2 1 Z " fill="#006A94" transform="translate(84,272)"/>
<path d="M0 0 C2 1 2 1 2 1 Z " fill="#006AD4" transform="translate(210,265)"/>
<path d="" fill="#00AAD4" transform="translate(0,0)"/>
<path d="" fill="#007FBF" transform="translate(0,0)"/>
<path d="" fill="#3F6A94" transform="translate(0,0)"/>
<path d="" fill="#3F7F7F" transform="translate(0,0)"/>
<path d="" fill="#003FBF" transform="translate(0,0)"/>
<path d="" fill="#002A55" transform="translate(0,0)"/>
<path d="" fill="#002AD4" transform="translate(0,0)"/>
<path d="" fill="#0000FF" transform="translate(0,0)"/>
<path d="" fill="#00BFBF" transform="translate(0,0)"/>
<path d="" fill="#003F7F" transform="translate(0,0)"/>
<path d="" fill="#003FBF" transform="translate(0,0)"/>
<path d="" fill="#002AD4" transform="translate(0,0)"/>
<path d="" fill="#00AAD4" transform="translate(0,0)"/>
<path d="" fill="#00AAD4" transform="translate(0,0)"/>
<path d="" fill="#009FBF" transform="translate(0,0)"/>
<path d="" fill="#00AAD4" transform="translate(0,0)"/>
<path d="" fill="#00BFDF" transform="translate(0,0)"/>
<path d="" fill="#00BFDF" transform="translate(0,0)"/>
<path d="" fill="#1F3FDF" transform="translate(0,0)"/>
<path d="" fill="#00BFDF" transform="translate(0,0)"/>
<path d="" fill="#2A2AD4" transform="translate(0,0)"/>
<path d="" fill="#3F5F7F" transform="translate(0,0)"/>
<path d="" fill="#3F6AD4" transform="translate(0,0)"/>
<path d="" fill="#1F3FDF" transform="translate(0,0)"/>
<path d="" fill="#1FBFDF" transform="translate(0,0)"/>
<path d="" fill="#3F7F9F" transform="translate(0,0)"/>
<path d="" fill="#3F7F9F" transform="translate(0,0)"/>
<path d="" fill="#3F7FDF" transform="translate(0,0)"/>
<path d="" fill="#3F7FBF" transform="translate(0,0)"/>
<path d="" fill="#1FBFDF" transform="translate(0,0)"/>
<path d="" fill="#3F6AD4" transform="translate(0,0)"/>
<path d="" fill="#3F5FBF" transform="translate(0,0)"/>
<path d="" fill="#1F3FDF" transform="translate(0,0)"/>
<path d="" fill="#1F3FDF" transform="translate(0,0)"/>
<path d="" fill="#00BFDF" transform="translate(0,0)"/>
<path d="" fill="#00BFDF" transform="translate(0,0)"/>
<path d="" fill="#00AAD4" transform="translate(0,0)"/>
<path d="" fill="#009FBF" transform="translate(0,0)"/>
<path d="" fill="#00AAD4" transform="translate(0,0)"/>
<path d="" fill="#00BFBF" transform="translate(0,0)"/>
<path d="" fill="#003FBF" transform="translate(0,0)"/>
<path d="" fill="#00BFDF" transform="translate(0,0)"/>
<path d="" fill="#00BFBF" transform="translate(0,0)"/>
<path d="" fill="#00BFBF" transform="translate(0,0)"/>
<path d="" fill="#002AD4" transform="translate(0,0)"/>
<path d="" fill="#002AD4" transform="translate(0,0)"/>
<path d="" fill="#003FBF" transform="translate(0,0)"/>
<path d="" fill="#003FBF" transform="translate(0,0)"/>
<path d="" fill="#3F3F7F" transform="translate(0,0)"/>
<path d="" fill="#3F7F7F" transform="translate(0,0)"/>
<path d="" fill="#00AAAA" transform="translate(0,0)"/>
<path d="" fill="#00AAD4" transform="translate(0,0)"/>
<path d="M0 0 C2 1 2 1 2 1 Z " fill="#6AAAD4" transform="translate(194,8)"/>
<path d="M0 0 C2 1 2 1 2 1 Z " fill="#6A94D4" transform="translate(86,8)"/>
<path d="M0 0 C2 1 2 1 2 1 Z " fill="#5F7FDF" transform="translate(189,6)"/>
<path d="M0 0 C2 1 2 1 2 1 Z " fill="#5F9FBF" transform="translate(91,6)"/>
<path d="" fill="#55AAAA" transform="translate(0,0)"/>
<path d="" fill="#55AAAA" transform="translate(0,0)"/>
<path d="" fill="#3F7FBF" transform="translate(0,0)"/>
<path d="" fill="#3F7FBF" transform="translate(0,0)"/>
<path d="" fill="#7F7FFF" transform="translate(0,0)"/>
<path d="" fill="#55AAAA" transform="translate(0,0)"/>
<path d="" fill="#7F7FFF" transform="translate(0,0)"/>
<path d="" fill="#55AAAA" transform="translate(0,0)"/>
<path d="" fill="#55AAAA" transform="translate(0,0)"/>
<path d="" fill="#55AAAA" transform="translate(0,0)"/>
<path d="" fill="#55AAAA" transform="translate(0,0)"/>
<path d="" fill="#3F7F7F" transform="translate(0,0)"/>
<path d="" fill="#3F7F7F" transform="translate(0,0)"/>
<path d="" fill="#55AAAA" transform="translate(0,0)"/>
<path d="" fill="#55AAAA" transform="translate(0,0)"/>
<path d="" fill="#5555AA" transform="translate(0,0)"/>
<path d="" fill="#5555AA" transform="translate(0,0)"/>
<path d="" fill="#5555AA" transform="translate(0,0)"/>
<path d="" fill="#5555AA" transform="translate(0,0)"/>
<path d="" fill="#5555AA" transform="translate(0,0)"/>
<path d="" fill="#007FFF" transform="translate(0,0)"/>
<path d="" fill="#007FFF" transform="translate(0,0)"/>
<path d="" fill="#007FFF" transform="translate(0,0)"/>
<path d="" fill="#007F7F" transform="translate(0,0)"/>
<path d="" fill="#003F7F" transform="translate(0,0)"/>
<path d="" fill="#007F7F" transform="translate(0,0)"/>
<path d="" fill="#3F7F7F" transform="translate(0,0)"/>
<path d="" fill="#00AAAA" transform="translate(0,0)"/>
<path d="" fill="#00AAAA" transform="translate(0,0)"/>
<path d="" fill="#7F7FFF" transform="translate(0,0)"/>
<path d="" fill="#5555AA" transform="translate(0,0)"/>
<path d="" fill="#0055AA" transform="translate(0,0)"/>
<path d="" fill="#0055AA" transform="translate(0,0)"/>
<path d="" fill="#00AAAA" transform="translate(0,0)"/>
<path d="" fill="#007F7F" transform="translate(0,0)"/>
<path d="" fill="#0055AA" transform="translate(0,0)"/>
<path d="" fill="#0055AA" transform="translate(0,0)"/>
<path d="" fill="#55AAAA" transform="translate(0,0)"/>
<path d="" fill="#5555AA" transform="translate(0,0)"/>
<path d="" fill="#55AAAA" transform="translate(0,0)"/>
<path d="" fill="#55AAAA" transform="translate(0,0)"/>
<path d="" fill="#5555AA" transform="translate(0,0)"/>
<path d="" fill="#55AAAA" transform="translate(0,0)"/>
<path d="" fill="#007F7F" transform="translate(0,0)"/>
<path d="" fill="#0055AA" transform="translate(0,0)"/>
<path d="" fill="#5555AA" transform="translate(0,0)"/>
<path d="" fill="#5555AA" transform="translate(0,0)"/>
<path d="" fill="#007FBF" transform="translate(0,0)"/>
<path d="" fill="#3F7FBF" transform="translate(0,0)"/>
<path d="" fill="#007FBF" transform="translate(0,0)"/>
<path d="" fill="#00AAAA" transform="translate(0,0)"/>
<path d="" fill="#5555AA" transform="translate(0,0)"/>
<path d="" fill="#5555AA" transform="translate(0,0)"/>
<path d="" fill="#007F7F" transform="translate(0,0)"/>
<path d="" fill="#00AAAA" transform="translate(0,0)"/>
<path d="" fill="#5555AA" transform="translate(0,0)"/>
<path d="" fill="#5555AA" transform="translate(0,0)"/>
<path d="" fill="#55AAAA" transform="translate(0,0)"/>
<path d="" fill="#55AAAA" transform="translate(0,0)"/>
<path d="" fill="#55AAAA" transform="translate(0,0)"/>
<path d="" fill="#55AAAA" transform="translate(0,0)"/>
<path d="" fill="#0055AA" transform="translate(0,0)"/>
<path d="" fill="#00AAAA" transform="translate(0,0)"/>
<path d="" fill="#007F7F" transform="translate(0,0)"/>
<path d="" fill="#0055AA" transform="translate(0,0)"/>
<path d="" fill="#0055AA" transform="translate(0,0)"/>
<path d="" fill="#0055AA" transform="translate(0,0)"/>
<path d="" fill="#0055AA" transform="translate(0,0)"/>
<path d="" fill="#5555AA" transform="translate(0,0)"/>
<path d="" fill="#3F7F7F" transform="translate(0,0)"/>
<path d="" fill="#00AAAA" transform="translate(0,0)"/>
<path d="" fill="#007F7F" transform="translate(0,0)"/>
<path d="" fill="#007F7F" transform="translate(0,0)"/>
<path d="" fill="#007F7F" transform="translate(0,0)"/>
<path d="" fill="#007FFF" transform="translate(0,0)"/>
<path d="" fill="#007FFF" transform="translate(0,0)"/>
<path d="" fill="#007FFF" transform="translate(0,0)"/>
<path d="" fill="#007FFF" transform="translate(0,0)"/>
<path d="" fill="#5555AA" transform="translate(0,0)"/>
<path d="" fill="#0055AA" transform="translate(0,0)"/>
<path d="" fill="#5555AA" transform="translate(0,0)"/>
<path d="" fill="#5555AA" transform="translate(0,0)"/>
<path d="" fill="#5555AA" transform="translate(0,0)"/>
<path d="" fill="#5555AA" transform="translate(0,0)"/>
<path d="" fill="#7F7FFF" transform="translate(0,0)"/>
<path d="" fill="#55AAAA" transform="translate(0,0)"/>
<path d="" fill="#7F7FFF" transform="translate(0,0)"/>
<path d="" fill="#55AAAA" transform="translate(0,0)"/>
<path d="" fill="#7F7FFF" transform="translate(0,0)"/>
<path d="" fill="#55AAAA" transform="translate(0,0)"/>
<path d="" fill="#7F7FFF" transform="translate(0,0)"/>
<path d="" fill="#7F7FFF" transform="translate(0,0)"/>
<path d="" fill="#3F7F7F" transform="translate(0,0)"/>
<path d="" fill="#007FBF" transform="translate(0,0)"/>
<path d="" fill="#55AAAA" transform="translate(0,0)"/>
<path d="" fill="#5555AA" transform="translate(0,0)"/>
<path d="" fill="#3F3F7F" transform="translate(0,0)"/>
</svg>
